<svg width="749" height="165" viewBox="0 0 749 165" fill="none" xmlns="http://www.w3.org/2000/svg">
<g style="mix-blend-mode:multiply">
<path d="M159.88 83.0001L160.168 65.2401H195.208C198.184 65.2401 199.624 63.8961 199.624 61.6881C199.624 59.5761 198.184 58.2321 195.112 58.2321H179.176C167.944 58.2321 158.824 50.5521 158.824 37.0161C158.824 21.4641 169.48 15.8 180.232 15.8H219.976V33.56H185.704C183.112 33.56 181.288 34.5201 181.288 36.9201C181.288 39.4161 183.112 40.4721 185.704 40.4721H200.68C213.544 40.4721 222.088 48.0561 222.088 61.5921C222.088 74.3601 212.488 83.0001 200.008 83.0001H159.88ZM229.769 83.0001V15.8H252.233V83.0001H229.769ZM296.007 84.0561C275.655 84.0561 260.391 68.9841 260.391 49.4001C260.391 29.9121 275.655 14.7441 296.007 14.7441C316.071 14.7441 329.223 27.6081 330.279 43.2561H308.775C308.199 39.5121 303.207 34.3281 295.431 34.3281C287.655 34.3281 281.127 39.8961 281.127 49.0161C281.127 58.1361 287.943 64.1841 295.143 64.1841C300.711 64.1841 304.551 62.2641 307.047 58.2321H295.239V51.1281H330.375C330.183 68.7921 316.359 84.0561 296.007 84.0561ZM338.039 83.0001V15.8H360.503L387.191 50.7441H387.863V15.8H410.327V83.0001H387.863L361.271 49.2081H360.503V83.0001H338.039ZM479.067 83.9601C461.403 83.9601 445.851 75.4161 445.851 52.7601V15.8H468.315V52.3761C468.315 60.8241 472.731 65.2401 479.547 65.2401C486.651 65.2401 490.491 60.8241 490.491 52.3761V15.8H512.955V52.7601C512.955 75.4161 497.019 83.9601 479.067 83.9601ZM568.161 15.8C581.793 15.8 590.049 23.6721 590.049 37.1121C590.049 48.9201 579.201 58.2321 567.201 58.2321H544.065V83.0001H521.601V15.8H568.161ZM563.937 40.4721C566.049 40.4721 567.585 39.0321 567.585 36.9201C567.585 34.6161 566.049 33.56 563.937 33.56H544.065V40.4721H563.937Z" fill="#FF00DD"/>
</g>
<g style="mix-blend-mode:multiply">
<path d="M63.36 80.56H26.784V87.472H63.36V105.232H26.784V130H4.32V62.8H63.36V80.56ZM104.755 130.96C85.6508 130.96 70.0988 115.504 70.0988 96.304C70.0988 77.2 85.6508 61.744 104.755 61.744C123.859 61.744 139.411 77.2 139.411 96.304C139.411 115.504 123.859 130.96 104.755 130.96ZM104.755 108.784C111.571 108.784 117.139 103.216 117.139 96.304C117.139 89.488 111.571 83.92 104.755 83.92C97.9388 83.92 92.3708 89.488 92.3708 96.304C92.3708 103.216 97.9388 108.784 104.755 108.784ZM193.865 130L179.657 105.136H169.097V130H146.633V62.8H194.153C207.785 62.8 216.041 70.672 216.041 84.112C216.041 93.04 210.089 100.24 202.121 103.408L218.249 130H193.865ZM169.097 80.464V87.568H189.929C192.041 87.568 193.577 86.128 193.577 83.92C193.577 81.52 192.041 80.464 189.929 80.464H169.097ZM284.567 130.96C266.903 130.96 251.351 122.416 251.351 99.76V62.8H273.815V99.376C273.815 107.824 278.231 112.24 285.047 112.24C292.151 112.24 295.991 107.824 295.991 99.376V62.8H318.455V99.76C318.455 122.416 302.519 130.96 284.567 130.96ZM373.661 62.8C387.293 62.8 395.549 70.672 395.549 84.112C395.549 95.92 384.701 105.232 372.701 105.232H349.565V130H327.101V62.8H373.661ZM369.437 87.472C371.549 87.472 373.085 86.032 373.085 83.92C373.085 81.616 371.549 80.56 369.437 80.56H349.565V87.472H369.437ZM442.151 62.8C458.663 62.8 474.407 75.376 474.407 95.92C474.407 118 455.495 130 441.383 130H401.351V62.8H442.151ZM435.335 112.24C444.743 112.24 451.751 105.904 451.751 95.824C451.751 84.976 444.935 80.56 434.567 80.56H423.815V112.24H435.335ZM526.106 130L524.281 123.184H500.09L498.266 130H474.938L494.522 62.8H529.85L549.434 130H526.106ZM504.89 105.232H519.482L512.954 80.56H511.418L504.89 105.232ZM567.513 130V80.56H547.545V62.8H609.945V80.56H589.977V130H567.513ZM676.514 80.464H639.65V87.472H676.514V105.232H639.65V112.336H676.514V130H617.186V62.8H676.514V80.464ZM683.693 130L683.98 112.24H719.021C721.997 112.24 723.437 110.896 723.437 108.688C723.437 106.576 721.997 105.232 718.925 105.232H702.989C691.757 105.232 682.637 97.552 682.637 84.016C682.637 68.464 693.293 62.8 704.045 62.8H743.789V80.56H709.517C706.925 80.56 705.101 81.52 705.101 83.92C705.101 86.416 706.925 87.472 709.517 87.472H724.493C737.357 87.472 745.901 95.056 745.901 108.592C745.901 121.36 736.301 130 723.821 130H683.693Z" fill="#3BE3E9"/>
</g>
</svg>
