<svg width="205" height="253" viewBox="0 0 205 253" fill="none" xmlns="http://www.w3.org/2000/svg">
<path d="M177.613 17.3585L18.873 28.2951L33.1422 235.407L191.882 224.471L177.613 17.3585Z" fill="#DF71B7"/>
<path d="M188.337 4.84399C188.188 4.85138 188.039 4.85877 187.901 4.85965C187.757 4.8552 187.621 4.84443 187.488 4.8392L187.114 4.78738L186.766 4.70784L186.446 4.60345L186.149 4.47153L185.88 4.31761L185.627 4.15107L185.434 3.93155L185.247 3.68284L185.079 3.40985L184.926 3.10708L184.799 2.77372L184.696 2.40426C184.67 2.27671 184.649 2.14303 184.62 2.00422C184.604 1.86443 184.588 1.7132 184.572 1.56768C184.564 1.4418 184.538 1.06416 184.538 1.06416L184.034 1.09885L182.67 1.19287L180.009 1.37618C180.009 1.37618 180.035 1.75382 180.044 1.8797L180.057 2.24669L180.055 2.59178L180.023 2.91881L179.966 3.22167L179.897 3.50529L179.806 3.77026L179.705 4.01866L179.58 4.25147L179.445 4.46199L179.301 4.65879L179.144 4.84207L178.98 5.01145L178.812 5.16385L178.638 5.30235L178.46 5.4296L178.283 5.53662L177.917 5.73144C177.795 5.78589 177.677 5.83136 177.563 5.88521C177.445 5.9221 177.332 5.96145 177.228 5.9945C177.121 6.02487 177.022 6.0518 176.929 6.07547C176.745 6.11117 176.583 6.14243 176.478 6.16117C176.37 6.17438 176.304 6.18177 176.304 6.18177C176.304 6.18177 172.282 6.4589 172.005 2.43643C171.996 2.31055 171.97 1.93291 171.97 1.93291L167.444 2.24473C167.444 2.24473 167.47 2.62238 167.478 2.74826C167.756 6.77073 163.733 7.04786 163.733 7.04786C163.733 7.04786 159.716 7.3246 159.439 3.30212C159.431 3.17624 159.405 2.7986 159.405 2.7986L154.873 3.11082C154.873 3.11082 154.899 3.48846 154.908 3.61434C155.185 7.63681 151.168 7.91355 151.168 7.91355C151.168 7.91355 147.145 8.19068 146.868 4.16821C146.86 4.04233 146.834 3.66469 146.834 3.66469L142.308 3.97651C142.308 3.97651 142.334 4.35415 142.342 4.48003C142.619 8.50251 138.597 8.77964 138.597 8.77964C138.597 8.77964 134.575 9.05677 134.297 5.0343C134.289 4.90842 134.263 4.53077 134.263 4.53077L129.737 4.8426C129.737 4.8426 129.763 5.22024 129.771 5.34612C130.049 9.36859 126.026 9.64572 126.026 9.64572C126.026 9.64572 122.004 9.92286 121.726 5.90038C121.718 5.7745 121.692 5.39686 121.692 5.39686L117.166 5.70868C117.166 5.70868 117.192 6.08633 117.2 6.21221C117.478 10.2347 113.455 10.5118 113.455 10.5118C113.455 10.5118 109.436 10.7887 109.158 6.76627C109.15 6.64039 109.124 6.26275 109.124 6.26275L104.595 6.57477C104.595 6.57477 104.621 6.95241 104.63 7.07829C104.907 11.1008 100.887 11.3777 100.887 11.3777C100.887 11.3777 96.8675 11.6546 96.5903 7.63216C96.5816 7.50628 96.5556 7.12864 96.5556 7.12864L92.0296 7.44046C92.0296 7.44046 92.0557 7.8181 92.0643 7.94398C92.3415 11.9665 88.319 12.2436 88.319 12.2436C88.319 12.2436 84.2994 12.5205 84.0222 8.49805C84.0136 8.37217 83.9876 7.99453 83.9876 7.99453L79.4587 8.30655C79.4587 8.30655 79.4847 8.68419 79.4934 8.81007C79.7705 12.8325 75.7509 13.1095 75.7509 13.1095C75.7509 13.1095 71.7284 13.3866 71.4513 9.36414C71.4426 9.23826 71.4166 8.86061 71.4166 8.86061L66.8906 9.17244C66.8906 9.17244 66.9166 9.55008 66.9253 9.67596C67.2024 13.6984 63.18 13.9756 63.18 13.9756C63.18 13.9756 59.1604 14.2525 58.8832 10.23C58.8746 10.1041 58.8485 9.7265 58.8485 9.7265L54.3197 10.0385C54.3197 10.0385 54.3457 10.4162 54.3544 10.542C54.6315 14.5645 50.6119 14.8415 50.6119 14.8415C50.6119 14.8415 46.5894 15.1186 46.3123 11.0961C46.3036 10.9702 46.2776 10.5926 46.2776 10.5926L41.7516 10.9044C41.7516 10.9044 41.7776 11.2821 41.7863 11.4079C42.0634 15.4304 38.041 15.7075 38.041 15.7075C38.041 15.7075 34.0185 15.9847 33.7413 11.9622C33.7327 11.8363 33.7067 11.4587 33.7067 11.4587L29.1807 11.7705C29.1807 11.7705 29.2067 12.1481 29.2154 12.274C29.4925 16.2965 25.4729 16.5734 25.4729 16.5734C25.4729 16.5734 21.4504 16.8506 21.1733 12.8281C21.1646 12.7022 21.1386 12.3246 21.1386 12.3246L16.6126 12.6364C16.6126 12.6364 16.6386 13.014 16.6473 13.1399C16.9244 17.1624 12.9019 17.4395 12.9019 17.4395C12.9019 17.4395 12.8388 17.441 12.7297 17.4428C12.6173 17.439 12.4586 17.4298 12.2682 17.4199C12.1753 17.4062 12.0709 17.3933 11.9608 17.3808C11.8532 17.3623 11.7364 17.3358 11.6173 17.3182C11.4968 17.2805 11.3741 17.2516 11.2451 17.2145L10.8587 17.0715L10.6405 16.9917L10.4466 16.89L10.252 16.777L10.0649 16.649L9.87959 16.5037L9.69897 16.3437L9.52881 16.1685L9.3691 15.9783L9.2164 15.7646L9.07683 15.5328L8.95323 15.2826L8.84256 15.0114L8.75054 14.7188L8.67677 14.3991L8.61612 14.0612L8.58231 13.6956C8.57364 13.5697 8.54762 13.192 8.54762 13.192L5.88695 13.3753L4.52229 13.4694L4.01876 13.504C4.01876 13.504 4.04478 13.8817 4.05345 14.0076C4.06084 14.1565 4.06537 14.3057 4.06931 14.4463C4.0618 14.5877 4.0539 14.7233 4.0456 14.8532L3.99358 15.2247L3.9173 15.5778L3.81024 15.9014L3.67813 16.1951L3.52727 16.467L3.36014 16.7114L3.13815 16.9107L2.8925 17.1L2.61685 17.2714L2.31368 17.4188L1.97746 17.5454L1.61373 17.6481C1.48311 17.6714 1.35288 17.7005 1.21082 17.7247C1.07123 17.7429 0.92552 17.7559 0.776949 17.769C0.651068 17.7776 0.273423 17.8037 0.273423 17.8037L0.308311 18.31L0.402527 19.6776L0.585837 22.3382C0.585837 22.3382 0.963481 22.3122 1.08936 22.3035L1.45595 22.284L1.79897 22.2978L2.12314 22.3301L2.42866 22.3837L2.71228 22.4533L2.97726 22.5443L3.22585 22.6479L3.4556 22.77L3.66898 22.9048L3.86578 23.0493L4.04601 23.2037L4.21538 23.3673L4.36799 23.5379L4.50915 23.7093L4.63373 23.8904L4.74382 24.0697L4.93843 24.4328C4.99288 24.5556 5.03855 24.676 5.08954 24.7904C5.1291 24.9055 5.16539 25.0151 5.20129 25.119C5.22901 25.2292 5.25593 25.3279 5.28246 25.421C5.3153 25.6055 5.34637 25.7644 5.36836 25.875C5.37851 25.9806 5.38877 26.046 5.38877 26.046C5.38877 26.046 5.6657 30.0656 1.64323 30.3428C1.51735 30.3514 1.13971 30.3775 1.13971 30.3775L1.45173 34.9063C1.45173 34.9063 1.82937 34.8803 1.95525 34.8716C5.97772 34.5945 6.25466 38.6141 6.25466 38.6141C6.25466 38.6141 6.53179 42.6366 2.50932 42.9137C2.38344 42.9224 2.00579 42.9484 2.00579 42.9484L2.31762 47.4744C2.31762 47.4744 2.69526 47.4484 2.82114 47.4397C6.84361 47.1626 7.12074 51.185 7.12074 51.185C7.12074 51.185 7.39788 55.2075 3.3754 55.4846C3.24952 55.4933 2.87188 55.5193 2.87188 55.5193L3.1837 60.0453C3.1837 60.0453 3.56135 60.0193 3.68723 60.0106C7.7097 59.7335 7.98663 63.7531 7.98663 63.7531C7.98663 63.7531 8.26357 67.7727 4.2411 68.0499C4.11522 68.0585 3.73757 68.0845 3.73757 68.0845L4.04959 72.6134C4.04959 72.6134 4.42724 72.5874 4.55312 72.5787C8.57559 72.3016 8.85252 76.3212 8.85252 76.3212C8.85252 76.3212 9.12965 80.3437 5.10718 80.6208C4.9813 80.6295 4.60366 80.6555 4.60366 80.6555L4.91548 85.1815C4.91548 85.1815 5.29312 85.1555 5.41901 85.1468C9.44148 84.8697 9.71861 88.8921 9.71861 88.8921C9.71861 88.8921 9.99574 92.9146 5.97327 93.1917C5.84739 93.2004 5.46974 93.2264 5.46974 93.2264L5.78157 97.7524C5.78157 97.7524 6.15921 97.7264 6.28509 97.7177C10.3076 97.4406 10.5847 101.463 10.5847 101.463C10.5847 101.463 10.8616 105.483 6.83916 105.76C6.71328 105.768 6.33563 105.794 6.33563 105.794L6.64765 110.323C6.64765 110.323 7.0253 110.297 7.15118 110.289C11.1736 110.012 11.4508 114.034 11.4508 114.034C11.4508 114.034 11.7275 118.051 7.70505 118.328C7.57917 118.337 7.20152 118.363 7.20152 118.363L7.51374 122.894C7.51374 122.894 7.89138 122.868 8.01726 122.86C12.0397 122.582 12.3165 126.599 12.3165 126.599C12.3165 126.599 12.5936 130.622 8.57113 130.899C8.44525 130.908 8.06761 130.934 8.06761 130.934L8.37943 135.46C8.37943 135.46 8.75708 135.434 8.88296 135.425C12.9054 135.148 13.1826 139.17 13.1826 139.17C13.1826 139.17 13.4597 143.193 9.43722 143.47C9.31134 143.478 8.93369 143.504 8.93369 143.504L9.24552 148.03C9.24552 148.03 9.62316 148.004 9.74904 147.996C13.7715 147.719 14.0486 151.741 14.0486 151.741C14.0486 151.741 14.3258 155.764 10.3033 156.041C10.1774 156.049 9.79978 156.075 9.79978 156.075L10.1116 160.601C10.1116 160.601 10.4892 160.575 10.6151 160.567C14.6376 160.29 14.9147 164.312 14.9147 164.312C14.9147 164.312 15.1915 168.329 11.169 168.606C11.0431 168.615 10.6655 168.641 10.6655 168.641L10.9775 173.169C10.9775 173.169 11.3551 173.143 11.481 173.135C15.5035 172.858 15.7808 176.883 15.7808 176.883C15.7808 176.883 16.0574 180.897 12.0349 181.174C11.909 181.183 11.5314 181.209 11.5314 181.209L11.8436 185.74C11.8436 185.74 12.2212 185.714 12.3471 185.706C16.3696 185.429 16.6463 189.445 16.6463 189.445C16.6463 189.445 16.9234 193.468 12.901 193.745C12.7751 193.754 12.3974 193.78 12.3974 193.78L12.7093 198.306C12.7093 198.306 13.0869 198.28 13.2128 198.271C17.2353 197.994 17.5124 202.016 17.5124 202.016C17.5124 202.016 17.7895 206.039 13.7671 206.316C13.6412 206.325 13.2635 206.351 13.2635 206.351L13.5754 210.877C13.5754 210.877 13.953 210.851 14.0789 210.842C18.1014 210.565 18.3785 214.587 18.3785 214.587C18.3785 214.587 18.6556 218.61 14.6331 218.887C14.5073 218.896 14.1296 218.922 14.1296 218.922L14.4414 223.448C14.4414 223.448 14.8191 223.421 14.945 223.413C18.9674 223.136 19.2446 227.158 19.2446 227.158C19.2446 227.158 19.5213 231.175 15.4988 231.452C15.373 231.461 14.9953 231.487 14.9953 231.487L15.3075 236.018C15.3075 236.018 15.6852 235.992 15.8111 235.984C19.8335 235.707 20.1103 239.723 20.1103 239.723C20.1103 239.723 20.1091 239.79 20.1137 239.898C20.1073 240.014 20.0979 240.17 20.0911 240.363C20.0743 240.453 20.0612 240.555 20.0519 240.67C20.0308 240.781 20.0066 240.889 19.9863 241.011C19.9516 241.134 19.9225 241.254 19.8854 241.383L19.7426 241.772L19.658 241.962L19.5596 242.162L19.4431 242.348L19.3151 242.535L19.1702 242.726L19.0124 242.898L18.8373 243.068L18.6444 243.231L18.4338 243.386L18.2016 243.52L17.9516 243.646L17.6802 243.754L17.3851 243.852L17.0684 243.929L16.7305 243.989L16.3647 244.02C16.2388 244.029 15.8612 244.055 15.8612 244.055L16.0445 246.715L16.1385 248.08L16.1736 248.589C16.1736 248.589 16.5513 248.563 16.6771 248.555C16.8288 248.544 16.9751 248.54 17.1128 248.536C17.2572 248.546 17.39 248.554 17.5224 248.557L17.8968 248.609L18.2476 248.694L18.5681 248.798L18.8644 248.927L19.1336 249.078L19.3808 249.245L19.58 249.467L19.7666 249.713L19.9381 249.992L20.0881 250.292L20.2117 250.625L20.315 250.998C20.3408 251.122 20.3674 251.258 20.3941 251.394C20.4092 251.531 20.4254 251.683 20.4383 251.828C20.447 251.954 20.473 252.332 20.473 252.332L20.9794 252.297L22.3441 252.203L25.0047 252.02C25.0047 252.02 24.9787 251.642 24.9701 251.516L24.9536 251.152L24.9673 250.809L24.9994 250.482L25.0504 250.18L25.1227 249.893L25.2108 249.628L25.3173 249.379L25.4394 249.15L25.5713 248.937L25.7161 248.743L25.8728 248.556L26.0369 248.393L26.2044 248.238L26.3788 248.099L26.5569 247.972L26.7392 247.864L27.1024 247.67C27.2249 247.612 27.3427 247.57 27.4571 247.519C27.5718 247.474 27.6845 247.44 27.7885 247.407C27.8957 247.377 27.9973 247.349 28.0877 247.326C28.2747 247.287 28.4309 247.259 28.5415 247.237C28.6469 247.224 28.7123 247.214 28.7123 247.214C28.7123 247.214 32.7348 246.937 33.0119 250.959C33.0206 251.085 33.0466 251.463 33.0466 251.463L37.5726 251.151C37.5726 251.151 37.5466 250.773 37.5379 250.647C37.2608 246.625 41.2833 246.348 41.2833 246.348C41.2833 246.348 45.3029 246.071 45.58 250.093C45.5887 250.219 45.6147 250.597 45.6147 250.597L50.1407 250.285C50.1407 250.285 50.1147 249.907 50.106 249.782C49.8289 245.759 53.8513 245.482 53.8513 245.482C53.8513 245.482 57.8738 245.205 58.1509 249.227C58.1596 249.353 58.1856 249.731 58.1856 249.731L62.7116 249.419C62.7116 249.419 62.6856 249.041 62.6769 248.915C62.3998 244.893 66.4223 244.616 66.4223 244.616C66.4223 244.616 70.4419 244.339 70.719 248.361C70.7277 248.487 70.7537 248.865 70.7537 248.865L75.2826 248.553C75.2826 248.553 75.2566 248.175 75.2479 248.049C74.9708 244.027 78.9904 243.75 78.9904 243.75C78.9904 243.75 83.0128 243.473 83.29 247.495C83.2986 247.621 83.3247 247.999 83.3247 247.999L87.8507 247.687C87.8507 247.687 87.8246 247.309 87.816 247.183C87.5388 243.161 91.5613 242.884 91.5613 242.884C91.5613 242.884 95.5809 242.607 95.858 246.629C95.8667 246.755 95.8927 247.133 95.8927 247.133L100.422 246.821C100.422 246.821 100.396 246.443 100.387 246.317C100.11 242.295 104.129 242.018 104.129 242.018C104.129 242.018 108.152 241.741 108.429 245.763C108.438 245.889 108.464 246.267 108.464 246.267L112.99 245.955C112.99 245.955 112.964 245.577 112.955 245.451C112.678 241.429 116.697 241.152 116.697 241.152C116.697 241.152 120.717 240.875 120.994 244.898C121.003 245.023 121.029 245.401 121.029 245.401L125.558 245.089C125.558 245.089 125.532 244.711 125.523 244.586C125.246 240.563 129.266 240.286 129.266 240.286C129.266 240.286 133.288 240.009 133.565 244.032C133.574 244.157 133.6 244.535 133.6 244.535L138.126 244.223C138.126 244.223 138.1 243.846 138.091 243.72C137.814 239.697 141.836 239.42 141.836 239.42C141.836 239.42 145.859 239.143 146.136 243.165C146.145 243.291 146.171 243.669 146.171 243.669L150.697 243.357C150.697 243.357 150.671 242.979 150.662 242.854C150.385 238.831 154.407 238.554 154.407 238.554C154.407 238.554 158.43 238.277 158.707 242.299C158.716 242.425 158.742 242.803 158.742 242.803L163.268 242.491C163.268 242.491 163.242 242.113 163.233 241.988C162.956 237.965 166.978 237.688 166.978 237.688C166.978 237.688 170.995 237.411 171.272 241.434C171.281 241.56 171.307 241.937 171.307 241.937L175.839 241.625C175.839 241.625 175.813 241.247 175.804 241.121C175.527 237.099 179.544 236.822 179.544 236.822C179.544 236.822 183.566 236.545 183.843 240.568C183.852 240.693 183.878 241.071 183.878 241.071L188.404 240.759C188.404 240.759 188.378 240.382 188.369 240.256C188.092 236.233 192.115 235.956 192.115 235.956C192.115 235.956 192.178 235.958 192.29 235.956C192.397 235.963 192.561 235.969 192.749 235.981C192.844 235.992 192.946 236.005 193.056 236.021C193.164 236.039 193.28 236.06 193.403 236.086C193.523 236.121 193.645 236.147 193.775 236.187L194.164 236.329L194.353 236.411L194.547 236.513L194.739 236.626L194.926 236.757L195.111 236.897L195.292 237.059L195.462 237.232L195.625 237.425L195.78 237.635L195.914 237.867L196.041 238.117L196.149 238.392L196.246 238.684L196.323 239.004L196.378 239.342L196.414 239.704C196.423 239.83 196.449 240.208 196.449 240.208L199.11 240.025L200.474 239.931L200.978 239.896C200.978 239.896 200.952 239.518 200.943 239.392C200.939 239.243 200.934 239.094 200.93 238.956C200.941 238.818 200.943 238.679 200.951 238.552L201.003 238.175L201.082 237.822L201.192 237.504L201.321 237.205L201.472 236.936L201.634 236.689L201.861 236.489L202.107 236.303L202.383 236.134L202.686 235.987L203.019 235.854L203.383 235.752C203.514 235.731 203.647 235.705 203.789 235.675C203.926 235.66 204.077 235.644 204.223 235.634C204.349 235.625 204.726 235.599 204.726 235.599L204.691 235.09L204.597 233.725L204.414 231.064C204.414 231.064 204.036 231.09 203.91 231.099L203.547 231.118L203.204 231.105L202.877 231.073L202.574 231.016L202.287 230.946L202.019 230.856L201.774 230.755L201.544 230.63L201.33 230.495L201.137 230.35L200.951 230.202L200.781 230.033L200.632 229.865L200.494 229.696L200.366 229.512L200.253 229.336L200.058 228.97C200.007 228.847 199.959 228.732 199.907 228.615C199.868 228.497 199.832 228.393 199.801 228.286C199.768 228.174 199.744 228.075 199.715 227.988C199.684 227.797 199.657 227.644 199.629 227.531C199.616 227.425 199.611 227.357 199.611 227.357C199.611 227.357 199.334 223.34 203.357 223.063C203.483 223.054 203.86 223.028 203.86 223.028L203.549 218.516C203.549 218.516 203.172 218.542 203.046 218.551C199.023 218.828 198.747 214.811 198.747 214.811C198.747 214.811 198.469 210.789 202.492 210.512C202.618 210.503 202.995 210.477 202.995 210.477L202.684 205.951C202.684 205.951 202.306 205.977 202.18 205.986C198.158 206.263 197.88 202.24 197.88 202.24C197.88 202.24 197.603 198.218 201.626 197.941C201.752 197.932 202.129 197.906 202.129 197.906L201.818 193.38C201.818 193.38 201.44 193.406 201.314 193.415C197.292 193.692 197.014 189.669 197.014 189.669C197.014 189.669 196.737 185.647 200.76 185.37C200.886 185.361 201.263 185.335 201.263 185.335L200.951 180.809C200.951 180.809 200.574 180.835 200.448 180.844C196.425 181.121 196.148 177.099 196.148 177.099C196.148 177.099 195.872 173.082 199.894 172.805C200.02 172.796 200.398 172.77 200.398 172.77L200.085 168.238C200.085 168.238 199.708 168.264 199.582 168.273C195.559 168.55 195.283 164.536 195.283 164.536C195.283 164.536 195.006 160.511 199.028 160.234C199.154 160.225 199.532 160.199 199.532 160.199L199.219 155.67C199.219 155.67 198.842 155.696 198.716 155.705C194.694 155.982 194.417 151.965 194.417 151.965C194.417 151.965 194.14 147.943 198.162 147.666C198.288 147.657 198.666 147.631 198.666 147.631L198.354 143.105C198.354 143.105 197.976 143.131 197.85 143.14C193.828 143.417 193.551 139.394 193.551 139.394C193.551 139.394 193.274 135.372 197.296 135.095C197.422 135.086 197.8 135.06 197.8 135.06L197.488 130.534C197.488 130.534 197.11 130.56 196.984 130.569C192.962 130.846 192.685 126.823 192.685 126.823C192.685 126.823 192.407 122.801 196.43 122.524C196.556 122.515 196.933 122.489 196.933 122.489L196.622 117.963C196.622 117.963 196.244 117.989 196.118 117.998C192.096 118.275 191.818 114.252 191.818 114.252C191.818 114.252 191.542 110.236 195.564 109.959C195.69 109.95 196.068 109.924 196.068 109.924L195.756 105.392C195.756 105.392 195.378 105.418 195.252 105.427C191.23 105.704 190.953 101.687 190.953 101.687C190.953 101.687 190.676 97.6647 194.698 97.3876C194.824 97.3789 195.202 97.3529 195.202 97.3529L194.89 92.824C194.89 92.824 194.512 92.85 194.386 92.8587C190.364 93.1358 190.087 89.1162 190.087 89.1162C190.087 89.1162 189.81 85.0938 193.832 84.8166C193.958 84.808 194.336 84.7819 194.336 84.7819L194.024 80.2559C194.024 80.2559 193.646 80.282 193.52 80.2906C189.498 80.5678 189.221 76.5453 189.221 76.5453C189.221 76.5453 188.944 72.5228 192.966 72.2457C193.092 72.237 193.469 72.211 193.469 72.211L193.158 67.685C193.158 67.685 192.78 67.711 192.654 67.7197C188.632 67.9968 188.355 63.9744 188.355 63.9744C188.355 63.9744 188.078 59.9547 192.1 59.6776C192.226 59.6689 192.604 59.6429 192.604 59.6429L192.292 55.1141C192.292 55.1141 191.914 55.1401 191.788 55.1488C187.766 55.4259 187.489 51.4063 187.489 51.4063C187.489 51.4063 187.212 47.3867 191.234 47.1095C191.36 47.1009 191.738 47.0748 191.738 47.0748L191.426 42.5488C191.426 42.5488 191.048 42.5749 190.922 42.5835C186.9 42.8607 186.623 38.8382 186.623 38.8382C186.623 38.8382 186.346 34.8157 190.368 34.5386C190.494 34.5299 190.872 34.5039 190.872 34.5039L190.56 29.9779C190.56 29.9779 190.182 30.0039 190.056 30.0126C186.034 30.2897 185.757 26.2673 185.757 26.2673C185.757 26.2673 185.48 22.2477 189.502 21.9705C189.628 21.9618 190.006 21.9358 190.006 21.9358L189.692 17.3841C189.692 17.3841 189.315 17.4101 189.189 17.4188C185.166 17.6959 184.889 13.6763 184.889 13.6763C184.889 13.6763 184.885 13.6134 184.883 13.5042C184.895 13.3913 184.902 13.2299 184.906 13.0428C184.925 12.9466 184.935 12.8453 184.951 12.7321C184.969 12.6245 184.99 12.5109 185.011 12.3917C185.045 12.2714 185.077 12.1456 185.111 12.0168L185.254 11.6304L185.342 11.4375L185.443 11.2408L185.556 11.0519L185.681 10.8622L185.827 10.6768L185.99 10.4989L186.162 10.3289L186.355 10.1662L186.566 10.0137L186.795 9.87713L187.048 9.75048L187.322 9.64247L187.614 9.54759L187.934 9.47096L188.272 9.41031L188.635 9.37956C188.761 9.37088 189.138 9.34487 189.138 9.34487L188.556 3.14318L188.861 5.31667L188.826 4.81029C188.84 4.8093 188.463 4.83532 188.337 4.84399ZM186.392 223.412L32.6802 234.002L18.6257 30.0063L172.341 19.416L186.392 223.412Z" fill="#E2DAC5"/>
<path d="M177.613 17.3586L18.873 28.2951L33.1422 235.407L191.882 224.471L177.613 17.3586Z" fill="#DF71B7"/>
<path d="M188.337 4.84405C188.188 4.85144 188.039 4.85883 187.901 4.85971C187.757 4.85526 187.621 4.8445 187.488 4.83926L187.114 4.78744L186.766 4.7079L186.446 4.60351L186.149 4.47159L185.88 4.31767L185.627 4.15113L185.434 3.93161L185.247 3.6829L185.079 3.40991L184.926 3.10714L184.799 2.77379L184.696 2.40433C184.67 2.27677 184.649 2.14309 184.62 2.00428C184.604 1.86449 184.588 1.71326 184.572 1.56774C184.564 1.44186 184.538 1.06422 184.538 1.06422L184.034 1.09891L182.67 1.19293L180.009 1.37624C180.009 1.37624 180.035 1.75388 180.044 1.87976L180.057 2.24675L180.055 2.59184L180.023 2.91887L179.966 3.22173L179.897 3.50535L179.806 3.77032L179.705 4.01872L179.58 4.25153L179.445 4.46205L179.301 4.65885L179.144 4.84213L178.98 5.01151L178.812 5.16392L178.638 5.30241L178.46 5.42966L178.283 5.53669L177.917 5.7315C177.795 5.78595 177.677 5.83142 177.563 5.88527C177.445 5.92216 177.332 5.96152 177.228 5.99456C177.121 6.02494 177.022 6.05186 176.929 6.07553C176.745 6.11123 176.583 6.14249 176.478 6.16123C176.37 6.17444 176.304 6.18183 176.304 6.18183C176.304 6.18183 172.282 6.45897 172.005 2.43649C171.996 2.31061 171.97 1.93297 171.97 1.93297L167.444 2.24479C167.444 2.24479 167.47 2.62244 167.478 2.74832C167.756 6.77079 163.733 7.04792 163.733 7.04792C163.733 7.04792 159.716 7.32466 159.439 3.30219C159.431 3.1763 159.405 2.79866 159.405 2.79866L154.873 3.11088C154.873 3.11088 154.899 3.48852 154.908 3.6144C155.185 7.63687 151.168 7.91361 151.168 7.91361C151.168 7.91361 147.145 8.19074 146.868 4.16827C146.86 4.04239 146.834 3.66475 146.834 3.66475L142.308 3.97657C142.308 3.97657 142.334 4.35421 142.342 4.48009C142.619 8.50257 138.597 8.7797 138.597 8.7797C138.597 8.7797 134.575 9.05683 134.297 5.03436C134.289 4.90848 134.263 4.53083 134.263 4.53083L129.737 4.84266C129.737 4.84266 129.763 5.2203 129.771 5.34618C130.049 9.36865 126.026 9.64579 126.026 9.64579C126.026 9.64579 122.004 9.92292 121.726 5.90044C121.718 5.77456 121.692 5.39692 121.692 5.39692L117.166 5.70874C117.166 5.70874 117.192 6.08639 117.2 6.21227C117.478 10.2347 113.455 10.5119 113.455 10.5119C113.455 10.5119 109.436 10.7888 109.158 6.76633C109.15 6.64045 109.124 6.26281 109.124 6.26281L104.595 6.57483C104.595 6.57483 104.621 6.95247 104.63 7.07835C104.907 11.1008 100.887 11.3778 100.887 11.3778C100.887 11.3778 96.8675 11.6547 96.5903 7.63222C96.5816 7.50634 96.5556 7.1287 96.5556 7.1287L92.0296 7.44052C92.0296 7.44052 92.0557 7.81816 92.0643 7.94405C92.3415 11.9665 88.319 12.2436 88.319 12.2436C88.319 12.2436 84.2994 12.5206 84.0222 8.49811C84.0136 8.37223 83.9876 7.99459 83.9876 7.99459L79.4587 8.30661C79.4587 8.30661 79.4847 8.68425 79.4934 8.81013C79.7705 12.8326 75.7509 13.1095 75.7509 13.1095C75.7509 13.1095 71.7284 13.3867 71.4513 9.3642C71.4426 9.23832 71.4166 8.86067 71.4166 8.86067L66.8906 9.1725C66.8906 9.1725 66.9166 9.55014 66.9253 9.67602C67.2024 13.6985 63.18 13.9756 63.18 13.9756C63.18 13.9756 59.1604 14.2526 58.8832 10.2301C58.8746 10.1042 58.8485 9.72656 58.8485 9.72656L54.3197 10.0386C54.3197 10.0386 54.3457 10.4162 54.3544 10.5421C54.6315 14.5646 50.6119 14.8415 50.6119 14.8415C50.6119 14.8415 46.5894 15.1186 46.3123 11.0962C46.3036 10.9703 46.2776 10.5926 46.2776 10.5926L41.7516 10.9045C41.7516 10.9045 41.7776 11.2821 41.7863 11.408C42.0634 15.4305 38.041 15.7076 38.041 15.7076C38.041 15.7076 34.0185 15.9847 33.7413 11.9623C33.7327 11.8364 33.7067 11.4587 33.7067 11.4587L29.1807 11.7706C29.1807 11.7706 29.2067 12.1482 29.2154 12.2741C29.4925 16.2966 25.4729 16.5735 25.4729 16.5735C25.4729 16.5735 21.4504 16.8506 21.1733 12.8281C21.1646 12.7023 21.1386 12.3246 21.1386 12.3246L16.6126 12.6364C16.6126 12.6364 16.6386 13.0141 16.6473 13.14C16.9244 17.1624 12.9019 17.4396 12.9019 17.4396C12.9019 17.4396 12.8388 17.4411 12.7297 17.4428C12.6173 17.4391 12.4586 17.4299 12.2682 17.42C12.1753 17.4063 12.0709 17.3933 11.9608 17.3808C11.8532 17.3624 11.7364 17.3359 11.6173 17.3182C11.4968 17.2805 11.3741 17.2516 11.2451 17.2145L10.8587 17.0716L10.6405 16.9917L10.4466 16.8901L10.252 16.777L10.0649 16.6491L9.87959 16.5037L9.69897 16.3437L9.52881 16.1686L9.3691 15.9784L9.2164 15.7647L9.07683 15.5329L8.95323 15.2827L8.84256 15.0115L8.75054 14.7188L8.67677 14.3991L8.61612 14.0612L8.58231 13.6956C8.57364 13.5697 8.54762 13.1921 8.54762 13.1921L5.88695 13.3754L4.52229 13.4694L4.01876 13.5041C4.01876 13.5041 4.04478 13.8818 4.05345 14.0076C4.06084 14.1566 4.06537 14.3058 4.06931 14.4463C4.0618 14.5877 4.0539 14.7234 4.0456 14.8533L3.99358 15.2248L3.9173 15.5779L3.81024 15.9014L3.67813 16.1951L3.52727 16.4671L3.36014 16.7115L3.13815 16.9107L2.8925 17.1001L2.61685 17.2714L2.31368 17.4188L1.97746 17.5455L1.61373 17.6481C1.48311 17.6715 1.35288 17.7006 1.21082 17.7248C1.07123 17.743 0.92552 17.7559 0.776949 17.769C0.651068 17.7777 0.273423 17.8037 0.273423 17.8037L0.308311 18.3101L0.402527 19.6776L0.585837 22.3383C0.585837 22.3383 0.963481 22.3123 1.08936 22.3036L1.45595 22.2841L1.79897 22.2978L2.12314 22.3301L2.42866 22.3838L2.71228 22.4534L2.97726 22.5443L3.22585 22.6479L3.4556 22.7701L3.66898 22.9049L3.86578 23.0494L4.04601 23.2037L4.21538 23.3674L4.36799 23.538L4.50915 23.7093L4.63373 23.8905L4.74382 24.0697L4.93843 24.4329C4.99288 24.5556 5.03855 24.6761 5.08954 24.7904C5.1291 24.9055 5.16539 25.0151 5.20129 25.119C5.22901 25.2292 5.25593 25.328 5.28246 25.421C5.3153 25.6056 5.34637 25.7644 5.36836 25.875C5.37851 25.9807 5.38877 26.0461 5.38877 26.0461C5.38877 26.0461 5.6657 30.0657 1.64323 30.3428C1.51735 30.3515 1.13971 30.3775 1.13971 30.3775L1.45173 34.9064C1.45173 34.9064 1.82937 34.8804 1.95525 34.8717C5.97772 34.5945 6.25466 38.6142 6.25466 38.6142C6.25466 38.6142 6.53179 42.6366 2.50932 42.9138C2.38344 42.9224 2.00579 42.9485 2.00579 42.9485L2.31762 47.4745C2.31762 47.4745 2.69526 47.4484 2.82114 47.4398C6.84361 47.1626 7.12074 51.1851 7.12074 51.1851C7.12074 51.1851 7.39788 55.2076 3.3754 55.4847C3.24952 55.4934 2.87188 55.5194 2.87188 55.5194L3.1837 60.0454C3.1837 60.0454 3.56135 60.0194 3.68723 60.0107C7.7097 59.7336 7.98663 63.7532 7.98663 63.7532C7.98663 63.7532 8.26357 67.7728 4.2411 68.0499C4.11522 68.0586 3.73757 68.0846 3.73757 68.0846L4.04959 72.6135C4.04959 72.6135 4.42724 72.5874 4.55312 72.5788C8.57559 72.3016 8.85252 76.3213 8.85252 76.3213C8.85252 76.3213 9.12965 80.3437 5.10718 80.6209C4.9813 80.6295 4.60366 80.6556 4.60366 80.6556L4.91548 85.1815C4.91548 85.1815 5.29312 85.1555 5.41901 85.1469C9.44148 84.8697 9.71861 88.8922 9.71861 88.8922C9.71861 88.8922 9.99574 92.9147 5.97327 93.1918C5.84739 93.2005 5.46974 93.2265 5.46974 93.2265L5.78157 97.7525C5.78157 97.7525 6.15921 97.7265 6.28509 97.7178C10.3076 97.4407 10.5847 101.463 10.5847 101.463C10.5847 101.463 10.8616 105.483 6.83916 105.76C6.71328 105.769 6.33563 105.795 6.33563 105.795L6.64765 110.323C6.64765 110.323 7.0253 110.297 7.15118 110.289C11.1736 110.012 11.4508 114.034 11.4508 114.034C11.4508 114.034 11.7275 118.051 7.70505 118.328C7.57917 118.337 7.20152 118.363 7.20152 118.363L7.51374 122.894C7.51374 122.894 7.89138 122.868 8.01726 122.86C12.0397 122.583 12.3165 126.599 12.3165 126.599C12.3165 126.599 12.5936 130.622 8.57113 130.899C8.44525 130.908 8.06761 130.934 8.06761 130.934L8.37943 135.46C8.37943 135.46 8.75708 135.434 8.88296 135.425C12.9054 135.148 13.1826 139.17 13.1826 139.17C13.1826 139.17 13.4597 143.193 9.43722 143.47C9.31134 143.479 8.93369 143.505 8.93369 143.505L9.24552 148.031C9.24552 148.031 9.62316 148.005 9.74904 147.996C13.7715 147.719 14.0486 151.741 14.0486 151.741C14.0486 151.741 14.3258 155.764 10.3033 156.041C10.1774 156.049 9.79978 156.075 9.79978 156.075L10.1116 160.601C10.1116 160.601 10.4892 160.575 10.6151 160.567C14.6376 160.29 14.9147 164.312 14.9147 164.312C14.9147 164.312 15.1915 168.329 11.169 168.606C11.0431 168.615 10.6655 168.641 10.6655 168.641L10.9775 173.17C10.9775 173.17 11.3551 173.144 11.481 173.135C15.5035 172.858 15.7808 176.883 15.7808 176.883C15.7808 176.883 16.0574 180.897 12.0349 181.174C11.909 181.183 11.5314 181.209 11.5314 181.209L11.8436 185.74C11.8436 185.74 12.2212 185.714 12.3471 185.706C16.3696 185.429 16.6463 189.445 16.6463 189.445C16.6463 189.445 16.9234 193.468 12.901 193.745C12.7751 193.754 12.3974 193.78 12.3974 193.78L12.7093 198.306C12.7093 198.306 13.0869 198.28 13.2128 198.271C17.2353 197.994 17.5124 202.016 17.5124 202.016C17.5124 202.016 17.7895 206.039 13.7671 206.316C13.6412 206.325 13.2635 206.351 13.2635 206.351L13.5754 210.877C13.5754 210.877 13.953 210.851 14.0789 210.842C18.1014 210.565 18.3785 214.587 18.3785 214.587C18.3785 214.587 18.6556 218.61 14.6331 218.887C14.5073 218.896 14.1296 218.922 14.1296 218.922L14.4414 223.448C14.4414 223.448 14.8191 223.422 14.945 223.413C18.9674 223.136 19.2446 227.158 19.2446 227.158C19.2446 227.158 19.5213 231.175 15.4988 231.452C15.373 231.461 14.9953 231.487 14.9953 231.487L15.3075 236.019C15.3075 236.019 15.6852 235.992 15.8111 235.984C19.8335 235.707 20.1103 239.723 20.1103 239.723C20.1103 239.723 20.1091 239.79 20.1137 239.899C20.1073 240.014 20.0979 240.17 20.0911 240.363C20.0743 240.453 20.0612 240.555 20.0519 240.67C20.0308 240.781 20.0066 240.889 19.9863 241.011C19.9516 241.134 19.9225 241.254 19.8854 241.383L19.7426 241.772L19.658 241.962L19.5596 242.162L19.4431 242.348L19.3151 242.535L19.1702 242.726L19.0124 242.898L18.8373 243.068L18.6444 243.231L18.4338 243.386L18.2016 243.52L17.9516 243.646L17.6802 243.754L17.3851 243.852L17.0684 243.929L16.7305 243.989L16.3647 244.02C16.2388 244.029 15.8612 244.055 15.8612 244.055L16.0445 246.716L16.1385 248.08L16.1736 248.589C16.1736 248.589 16.5513 248.563 16.6771 248.555C16.8288 248.544 16.9751 248.54 17.1128 248.536C17.2572 248.546 17.39 248.555 17.5224 248.557L17.8968 248.609L18.2476 248.694L18.5681 248.798L18.8644 248.927L19.1336 249.078L19.3808 249.245L19.58 249.467L19.7666 249.713L19.9381 249.992L20.0881 250.292L20.2117 250.625L20.315 250.998C20.3408 251.122 20.3674 251.258 20.3941 251.395C20.4092 251.531 20.4254 251.683 20.4383 251.828C20.447 251.954 20.473 252.332 20.473 252.332L20.9794 252.297L22.3441 252.203L25.0047 252.02C25.0047 252.02 24.9787 251.642 24.9701 251.516L24.9536 251.152L24.9673 250.809L24.9994 250.482L25.0504 250.18L25.1227 249.893L25.2108 249.628L25.3173 249.38L25.4394 249.15L25.5713 248.937L25.7161 248.743L25.8728 248.557L26.0369 248.393L26.2044 248.238L26.3788 248.099L26.5569 247.972L26.7392 247.864L27.1024 247.67C27.2249 247.613 27.3427 247.57 27.4571 247.519C27.5718 247.474 27.6845 247.44 27.7885 247.407C27.8957 247.377 27.9973 247.349 28.0877 247.326C28.2747 247.287 28.4309 247.259 28.5415 247.237C28.6469 247.224 28.7123 247.214 28.7123 247.214C28.7123 247.214 32.7348 246.937 33.0119 250.959C33.0206 251.085 33.0466 251.463 33.0466 251.463L37.5726 251.151C37.5726 251.151 37.5466 250.773 37.5379 250.647C37.2608 246.625 41.2833 246.348 41.2833 246.348C41.2833 246.348 45.3029 246.071 45.58 250.093C45.5887 250.219 45.6147 250.597 45.6147 250.597L50.1407 250.285C50.1407 250.285 50.1147 249.907 50.106 249.782C49.8289 245.759 53.8513 245.482 53.8513 245.482C53.8513 245.482 57.8738 245.205 58.1509 249.227C58.1596 249.353 58.1856 249.731 58.1856 249.731L62.7116 249.419C62.7116 249.419 62.6856 249.041 62.6769 248.915C62.3998 244.893 66.4223 244.616 66.4223 244.616C66.4223 244.616 70.4419 244.339 70.719 248.361C70.7277 248.487 70.7537 248.865 70.7537 248.865L75.2826 248.553C75.2826 248.553 75.2566 248.175 75.2479 248.049C74.9708 244.027 78.9904 243.75 78.9904 243.75C78.9904 243.75 83.0128 243.473 83.29 247.495C83.2986 247.621 83.3247 247.999 83.3247 247.999L87.8507 247.687C87.8507 247.687 87.8246 247.309 87.816 247.184C87.5388 243.161 91.5613 242.884 91.5613 242.884C91.5613 242.884 95.5809 242.607 95.858 246.629C95.8667 246.755 95.8927 247.133 95.8927 247.133L100.422 246.821C100.422 246.821 100.396 246.443 100.387 246.317C100.11 242.295 104.129 242.018 104.129 242.018C104.129 242.018 108.152 241.741 108.429 245.763C108.438 245.889 108.464 246.267 108.464 246.267L112.99 245.955C112.99 245.955 112.964 245.577 112.955 245.452C112.678 241.429 116.697 241.152 116.697 241.152C116.697 241.152 120.717 240.875 120.994 244.898C121.003 245.024 121.029 245.401 121.029 245.401L125.558 245.089C125.558 245.089 125.532 244.712 125.523 244.586C125.246 240.563 129.266 240.286 129.266 240.286C129.266 240.286 133.288 240.009 133.565 244.032C133.574 244.157 133.6 244.535 133.6 244.535L138.126 244.223C138.126 244.223 138.1 243.846 138.091 243.72C137.814 239.697 141.836 239.42 141.836 239.42C141.836 239.42 145.859 239.143 146.136 243.165C146.145 243.291 146.171 243.669 146.171 243.669L150.697 243.357C150.697 243.357 150.671 242.98 150.662 242.854C150.385 238.831 154.407 238.554 154.407 238.554C154.407 238.554 158.43 238.277 158.707 242.299C158.716 242.425 158.742 242.803 158.742 242.803L163.268 242.491C163.268 242.491 163.242 242.113 163.233 241.988C162.956 237.965 166.978 237.688 166.978 237.688C166.978 237.688 170.995 237.411 171.272 241.434C171.281 241.56 171.307 241.937 171.307 241.937L175.839 241.625C175.839 241.625 175.813 241.247 175.804 241.121C175.527 237.099 179.544 236.822 179.544 236.822C179.544 236.822 183.566 236.545 183.843 240.568C183.852 240.693 183.878 241.071 183.878 241.071L188.404 240.759C188.404 240.759 188.378 240.382 188.369 240.256C188.092 236.233 192.115 235.956 192.115 235.956C192.115 235.956 192.178 235.958 192.29 235.956C192.397 235.963 192.561 235.969 192.749 235.982C192.844 235.992 192.946 236.005 193.056 236.021C193.164 236.039 193.28 236.06 193.403 236.086C193.523 236.121 193.645 236.147 193.775 236.187L194.164 236.33L194.353 236.411L194.547 236.513L194.739 236.626L194.926 236.757L195.111 236.897L195.292 237.06L195.462 237.232L195.625 237.425L195.78 237.635L195.914 237.868L196.041 238.118L196.149 238.392L196.246 238.684L196.323 239.004L196.378 239.342L196.414 239.704C196.423 239.83 196.449 240.208 196.449 240.208L199.11 240.025L200.474 239.931L200.978 239.896C200.978 239.896 200.952 239.518 200.943 239.392C200.939 239.243 200.934 239.094 200.93 238.956C200.941 238.818 200.943 238.68 200.951 238.552L201.003 238.175L201.082 237.822L201.192 237.504L201.321 237.205L201.472 236.936L201.634 236.689L201.861 236.489L202.107 236.303L202.383 236.134L202.686 235.987L203.019 235.855L203.383 235.752C203.514 235.731 203.647 235.705 203.789 235.675C203.926 235.66 204.077 235.644 204.223 235.634C204.349 235.625 204.726 235.599 204.726 235.599L204.691 235.09L204.597 233.725L204.414 231.064C204.414 231.064 204.036 231.09 203.91 231.099L203.547 231.118L203.204 231.105L202.877 231.073L202.574 231.016L202.287 230.946L202.019 230.856L201.774 230.755L201.544 230.63L201.33 230.495L201.137 230.35L200.951 230.202L200.781 230.033L200.632 229.865L200.494 229.696L200.366 229.512L200.253 229.336L200.058 228.97C200.007 228.847 199.959 228.733 199.907 228.615C199.868 228.497 199.832 228.393 199.801 228.286C199.768 228.174 199.744 228.075 199.715 227.988C199.684 227.797 199.657 227.644 199.629 227.531C199.616 227.425 199.611 227.357 199.611 227.357C199.611 227.357 199.334 223.34 203.357 223.063C203.483 223.054 203.86 223.028 203.86 223.028L203.549 218.516C203.549 218.516 203.172 218.542 203.046 218.551C199.023 218.828 198.747 214.811 198.747 214.811C198.747 214.811 198.469 210.789 202.492 210.512C202.618 210.503 202.995 210.477 202.995 210.477L202.684 205.951C202.684 205.951 202.306 205.977 202.18 205.986C198.158 206.263 197.88 202.24 197.88 202.24C197.88 202.24 197.603 198.218 201.626 197.941C201.752 197.932 202.129 197.906 202.129 197.906L201.818 193.38C201.818 193.38 201.44 193.406 201.314 193.415C197.292 193.692 197.014 189.67 197.014 189.67C197.014 189.67 196.737 185.647 200.76 185.37C200.886 185.361 201.263 185.335 201.263 185.335L200.951 180.809C200.951 180.809 200.574 180.835 200.448 180.844C196.425 181.121 196.148 177.099 196.148 177.099C196.148 177.099 195.872 173.082 199.894 172.805C200.02 172.796 200.398 172.77 200.398 172.77L200.085 168.238C200.085 168.238 199.708 168.264 199.582 168.273C195.559 168.55 195.283 164.536 195.283 164.536C195.283 164.536 195.006 160.511 199.028 160.234C199.154 160.225 199.532 160.199 199.532 160.199L199.219 155.67C199.219 155.67 198.842 155.696 198.716 155.705C194.694 155.982 194.417 151.965 194.417 151.965C194.417 151.965 194.14 147.943 198.162 147.666C198.288 147.657 198.666 147.631 198.666 147.631L198.354 143.105C198.354 143.105 197.976 143.131 197.85 143.14C193.828 143.417 193.551 139.394 193.551 139.394C193.551 139.394 193.274 135.372 197.296 135.095C197.422 135.086 197.8 135.06 197.8 135.06L197.488 130.534C197.488 130.534 197.11 130.56 196.984 130.569C192.962 130.846 192.685 126.823 192.685 126.823C192.685 126.823 192.407 122.801 196.43 122.524C196.556 122.515 196.933 122.489 196.933 122.489L196.622 117.963C196.622 117.963 196.244 117.989 196.118 117.998C192.096 118.275 191.818 114.252 191.818 114.252C191.818 114.252 191.542 110.236 195.564 109.959C195.69 109.95 196.068 109.924 196.068 109.924L195.756 105.392C195.756 105.392 195.378 105.418 195.252 105.427C191.23 105.704 190.953 101.687 190.953 101.687C190.953 101.687 190.676 97.6648 194.698 97.3876C194.824 97.379 195.202 97.3529 195.202 97.3529L194.89 92.8241C194.89 92.8241 194.512 92.8501 194.386 92.8588C190.364 93.1359 190.087 89.1163 190.087 89.1163C190.087 89.1163 189.81 85.0938 193.832 84.8167C193.958 84.808 194.336 84.782 194.336 84.782L194.024 80.256C194.024 80.256 193.646 80.282 193.52 80.2907C189.498 80.5678 189.221 76.5454 189.221 76.5454C189.221 76.5454 188.944 72.5229 192.966 72.2458C193.092 72.2371 193.469 72.2111 193.469 72.2111L193.158 67.6851C193.158 67.6851 192.78 67.7111 192.654 67.7198C188.632 67.9969 188.355 63.9744 188.355 63.9744C188.355 63.9744 188.078 59.9548 192.1 59.6777C192.226 59.669 192.604 59.643 192.604 59.643L192.292 55.1141C192.292 55.1141 191.914 55.1402 191.788 55.1488C187.766 55.426 187.489 51.4063 187.489 51.4063C187.489 51.4063 187.212 47.3867 191.234 47.1096C191.36 47.1009 191.738 47.0749 191.738 47.0749L191.426 42.5489C191.426 42.5489 191.048 42.5749 190.922 42.5836C186.9 42.8607 186.623 38.8383 186.623 38.8383C186.623 38.8383 186.346 34.8158 190.368 34.5387C190.494 34.53 190.872 34.504 190.872 34.504L190.56 29.978C190.56 29.978 190.182 30.004 190.056 30.0127C186.034 30.2898 185.757 26.2673 185.757 26.2673C185.757 26.2673 185.48 22.2477 189.502 21.9706C189.628 21.9619 190.006 21.9359 190.006 21.9359L189.692 17.3842C189.692 17.3842 189.315 17.4102 189.189 17.4188C185.166 17.696 184.889 13.6764 184.889 13.6764C184.889 13.6764 184.885 13.6134 184.883 13.5043C184.895 13.3914 184.902 13.23 184.906 13.0428C184.925 12.9466 184.935 12.8453 184.951 12.7322C184.969 12.6245 184.99 12.511 185.011 12.3917C185.045 12.2715 185.077 12.1457 185.111 12.0168L185.254 11.6304L185.342 11.4376L185.443 11.2409L185.556 11.052L185.681 10.8623L185.827 10.6769L185.99 10.4989L186.162 10.329L186.355 10.1662L186.566 10.0137L186.795 9.87719L187.048 9.75054L187.322 9.64253L187.614 9.54765L187.934 9.47102L188.272 9.41037L188.635 9.37962C188.761 9.37094 189.138 9.34493 189.138 9.34493L188.556 3.14325L188.861 5.31673L188.826 4.81035C188.84 4.80936 188.463 4.83538 188.337 4.84405ZM186.392 223.412L32.6802 234.002L18.6257 30.0064L172.341 19.4161L186.392 223.412Z" fill="#E2DAC5"/>
<g style="mix-blend-mode:overlay">
<path d="M157.809 60C163.947 72.5585 176.037 81.1465 189.916 82.8089C177.357 88.9477 168.769 101.037 167.107 114.916C160.968 102.358 148.879 93.7697 135 92.1074C147.558 85.9685 156.146 73.8794 157.809 60Z" fill="#FFE91F"/>
</g>
<g style="mix-blend-mode:overlay">
<path d="M141.531 52C143.558 56.1469 147.55 58.9827 152.133 59.5317C147.986 61.5588 145.151 65.5507 144.602 70.1337C142.575 65.9868 138.583 63.151 134 62.6021C138.146 60.575 140.982 56.5831 141.531 52Z" fill="#FFE91F"/>
</g>
<g style="mix-blend-mode:luminosity">
<path d="M55.5366 167.616C51.7257 166.681 43.795 158.912 40.306 155.144L50.1373 153.461L65.1462 115.375L89.8763 109.157L138.219 116.855C144.516 131.617 156.555 162.071 154.333 165.784C152.111 169.498 144.901 172.889 141.573 174.12L96.1869 180.797C84.2247 176.793 59.3476 168.551 55.5366 167.616Z" fill="#767676"/>
<path d="M42.9144 148.52C41.3753 150.527 39.8729 152.477 38.3338 154.484C40.2014 155.915 41.9175 157.066 44.2123 157.417C47.9641 157.991 51.2496 157.019 54.3466 155.114C56.9392 153.525 58.6801 151.206 59.6047 148.33C61.3844 142.783 63.0427 137.2 64.8645 131.667C65.9495 128.384 67.3277 125.22 69.5683 122.502C72.4929 118.95 76.2492 117.036 80.8392 116.732C85.3864 116.425 89.39 117.808 92.588 120.996C95.565 123.962 97.1727 127.691 97.7592 131.858C98.0922 134.237 97.9892 136.6 97.7611 138.975C97.7303 139.311 97.742 139.656 97.7368 140.01C98.8848 139.678 99.9445 139.086 100.959 139.163C101.979 139.24 102.949 139.98 104.045 140.476C104.097 140.136 104.19 139.772 104.201 139.413C104.323 136.364 104.755 133.37 105.951 130.537C108.613 124.244 113.026 120.079 120.142 119.638C124.66 119.356 128.648 120.948 131.963 124.085C134.643 126.621 136.161 129.826 136.9 133.327C137.818 137.686 138.369 142.114 139.133 146.504C139.705 149.784 140.262 153.067 141.037 156.302C141.78 159.406 143.887 161.603 146.515 163.323C148.362 164.526 150.318 165.502 152.548 165.649C154.712 165.791 156.915 165.936 158.884 164.671C159.377 164.354 159.929 164.127 160.547 163.808C160.099 162.882 159.713 161.987 159.242 161.14C157.901 158.749 156.525 156.376 155.155 154.005C154.964 153.673 154.701 153.379 154.464 153.076C153.642 152.025 153.715 150.773 154.701 149.874C155.495 149.149 156.32 148.459 157.153 147.786C157.59 147.432 157.683 147.063 157.463 146.541C156.053 143.128 154.626 139.725 153.271 136.29C151.509 131.83 149.801 127.352 148.099 122.87C147.734 121.912 147.922 121.066 148.47 120.103C149.162 118.886 149.582 117.467 149.849 116.079C150.506 112.672 151.008 109.238 151.575 105.813C152.306 101.423 152.345 96.9862 152.003 92.5796C151.563 86.9023 150.825 81.2454 150.206 75.5761C150.161 75.1642 150.095 74.7507 150.007 74.3463C149.74 73.0952 149.676 73.0151 148.505 73.5017C144.978 74.9606 141.383 76.3068 137.968 77.9998C132.97 80.4764 128.09 83.1929 123.187 85.8539C121.616 86.7081 120.107 87.6798 118.593 88.6351C117.573 89.2782 116.633 89.5727 115.429 88.9227C114.62 88.4853 113.611 88.3391 112.675 88.2253C109.005 87.7813 105.338 87.2999 101.654 87.0482C99.4035 86.8943 97.1344 87.1313 94.8675 87.1964C94.7754 87.2002 94.6743 87.1818 94.6016 87.214C92.9293 88.0551 91.8246 87.1008 90.6376 86.0919C84.3839 80.7653 77.7941 75.8864 70.9645 71.3225C68.7855 69.8678 66.4672 68.6121 64.2034 67.2799C62.7768 66.4411 62.6163 66.4934 62.1566 68.0766C61.0567 71.8422 59.952 75.602 58.9208 79.3889C57.7048 83.8337 56.9097 88.3533 56.4062 92.9434C55.7034 99.3836 55.6455 105.792 56.602 112.207C56.6567 112.555 56.7023 112.951 56.8923 113.223C57.5788 114.211 57.35 115.166 56.8272 116.083C54.8641 119.558 52.8852 123.026 50.8758 126.47C48.6555 130.275 46.4039 134.066 44.132 137.84C43.7553 138.467 43.8196 138.902 44.3047 139.412C45.0392 140.193 45.7676 140.984 46.3933 141.849C47.1025 142.821 46.9372 143.938 46.1711 144.788C45.0803 146.007 44.03 147.26 42.9178 148.547L42.9144 148.52ZM130.708 99.4037C129.853 98.1511 129.009 96.894 128.131 95.6558C127.199 94.3383 127.173 93.4656 128.209 92.1947C129.202 90.9743 130.212 89.7552 131.317 88.6347C134.182 85.7336 137.23 83.0452 140.607 80.715C143.062 79.0192 146.084 81.1128 146.066 83.4874C146.056 85.2013 146.336 86.9157 146.471 88.6299C146.782 92.5934 147.157 96.5565 146.743 100.535C146.464 103.223 146.244 105.921 145.933 108.601C145.823 109.561 145.609 110.539 145.255 111.437C144.286 113.9 141.855 114.276 140.125 112.237C139.069 110.991 138.078 109.685 137.114 108.359C134.982 105.425 132.89 102.461 130.708 99.4091L130.708 99.4037ZM61.1841 104.367C61.1688 103.57 61.1216 102.766 61.1492 101.972C61.1891 100.873 61.2669 99.7719 61.3605 98.677C61.6348 95.3328 61.7118 91.9576 62.2579 88.6608C62.8903 84.8653 64.0291 81.1565 64.7742 77.3695C65.2561 74.9225 68.4379 73.3946 70.5798 75.4109C73.1096 77.7953 75.4156 80.3562 77.4787 83.1299C78.8263 84.9411 80.0305 86.8651 81.2132 88.7875C81.9733 90.0167 81.7503 90.9674 80.7541 92.0048C77.3552 95.5482 73.9864 99.1207 70.5626 102.635C69.1522 104.082 67.6802 105.487 66.1503 106.801C64.3433 108.352 62.0217 107.569 61.4168 105.287C61.3499 105.03 61.2888 104.767 61.1899 104.362L61.1841 104.367Z" fill="#783D77"/>
<path d="M103.537 181.393C116.939 180.302 130.03 178.033 142.802 173.901C140.961 173.357 139.134 172.772 137.285 172.27C131.774 170.772 126.804 168.202 121.991 165.192C118.273 162.865 114.813 160.277 111.608 157.329C109.003 154.943 106.953 152.162 105.664 148.886C105.165 147.618 104.09 146.897 103.1 146.109C100.922 144.368 100.458 144.354 98.043 145.689C96.6211 146.471 95.425 147.414 94.5478 148.86C92.5091 152.221 89.4494 154.567 86.1728 156.706C82.3789 159.178 78.2025 160.843 74.1127 162.723C68.2801 165.408 62.0396 166.193 55.7931 167.058C55.3888 167.113 54.9903 167.162 54.3511 167.247C54.7926 167.488 55.0303 167.634 55.2808 167.754C64.4926 172.232 74.1215 175.628 83.9808 178.408C87.719 179.462 91.4656 180.55 95.2672 181.338C97.5516 181.809 99.9486 182.006 102.314 181.546C102.693 181.473 103.084 181.449 103.548 181.394L103.537 181.393ZM101.186 170.569C99.7231 172.898 97.3622 172.224 96.524 170.792C95.8824 169.694 95.0941 168.676 94.5078 167.561C93.9497 166.502 93.4283 165.387 93.1475 164.236C92.9039 163.238 93.3851 162.31 94.3494 161.787C95.2968 161.272 96.2067 161.469 97.011 162.132C97.6065 162.624 98.1365 163.197 98.7505 163.659C98.9605 163.813 99.4226 163.853 99.6485 163.726C100.381 163.334 101.028 162.787 101.755 162.394C103.294 161.568 104.892 162.397 105.179 164.102C105.384 165.326 104.77 166.292 104.098 167.178C103.221 168.326 102.212 169.374 101.181 170.569L101.186 170.569Z" fill="#FDFDFE" stroke="#767676" stroke-width="3"/>
<path d="M130.389 99.6217C132.58 102.668 134.714 105.677 136.889 108.662C137.866 110.007 138.878 111.332 139.96 112.598C141.724 114.668 144.203 114.288 145.19 111.788C145.55 110.876 145.763 109.883 145.881 108.91C146.202 106.185 146.42 103.452 146.703 100.724C147.124 96.6861 146.74 92.6637 146.422 88.6409C146.284 86.9012 145.997 85.161 146.007 83.4216C146.024 81.0116 142.943 78.8857 140.441 80.6059C136.997 82.9751 133.891 85.6971 130.971 88.6405C129.845 89.7773 128.816 91.0143 127.803 92.2525C126.748 93.542 126.774 94.4278 127.724 95.7652C128.615 97.0218 129.476 98.3034 130.394 99.6221L130.389 99.6217Z" fill="#767676"/>
<path d="M61.0001 104.783C61.0809 105.122 61.1409 105.383 61.2063 105.644C61.8025 107.959 64.083 108.748 65.8671 107.17C67.3828 105.833 68.8364 104.404 70.2242 102.932C73.6061 99.3525 76.9336 95.7194 80.2904 92.1212C81.2743 91.0662 81.4909 90.1005 80.75 88.8552C79.5889 86.9069 78.4066 84.9571 77.0827 83.122C75.056 80.3118 72.79 77.7126 70.3021 75.304C68.196 73.2625 65.0574 74.8202 64.577 77.3046C63.8347 81.144 62.6991 84.91 62.0723 88.7691C61.5268 92.116 61.443 95.5469 61.1656 98.9359C61.0762 100.048 60.997 101.166 60.95 102.28C60.9206 103.091 60.9657 103.902 60.9948 104.783L61.0001 104.783Z" fill="#767676"/>
<path d="M100.714 170.453C101.699 169.29 102.704 168.225 103.576 167.059C104.246 166.158 104.857 165.177 104.656 163.935C104.378 162.206 102.787 161.372 101.257 162.208C100.529 162.607 99.8855 163.158 99.162 163.563C98.9378 163.687 98.4785 163.652 98.2701 163.496C97.6556 163.028 97.1354 162.448 96.5447 161.949C95.7472 161.272 94.8432 161.08 93.9013 161.603C92.9425 162.136 92.4631 163.078 92.7035 164.091C92.9805 165.258 93.4966 166.389 94.0492 167.463C94.6347 168.599 95.4161 169.631 96.0468 170.738C96.8766 172.196 99.2212 172.87 100.714 170.453Z" fill="#767676"/>
<path d="M126.891 154.47C124.973 156.908 121.269 155.609 120.636 153.602C120.135 152.02 119.627 150.343 119.677 148.726C119.778 145.567 120.21 142.409 120.617 139.268C120.73 138.382 121.194 137.526 121.595 136.694C122.24 135.366 123.394 134.716 124.942 134.805C126.515 134.899 127.555 135.738 127.962 137.125C128.32 138.347 128.714 139.634 128.67 140.88C128.526 144.569 128.226 148.259 127.875 151.943C127.793 152.787 127.26 153.59 126.891 154.476L126.891 154.47Z" fill="#FDFDFE"/>
<path d="M80.8906 152.47C78.9729 154.908 75.2691 153.609 74.6361 151.602C74.1348 150.02 73.6271 148.343 73.6773 146.725C73.7775 143.567 74.21 140.409 74.6173 137.268C74.7301 136.382 75.1939 135.526 75.595 134.694C76.2405 133.366 77.3936 132.716 78.9416 132.805C80.5146 132.899 81.5549 133.738 81.9623 135.125C82.3195 136.347 82.7143 137.634 82.6705 138.88C82.5263 142.569 82.2255 146.259 81.8746 149.943C81.7931 150.787 81.2604 151.59 80.8906 152.476L80.8906 152.47Z" fill="#FDFDFE"/>
</g>
<path d="M188.337 4.84405C188.188 4.85144 188.039 4.85883 187.901 4.85971C187.757 4.85526 187.621 4.8445 187.488 4.83926L187.114 4.78744L186.766 4.7079L186.446 4.60351L186.149 4.47159L185.88 4.31767L185.627 4.15113L185.434 3.93161L185.247 3.6829L185.079 3.40991L184.926 3.10714L184.799 2.77379L184.696 2.40433C184.67 2.27677 184.649 2.14309 184.62 2.00428C184.604 1.86449 184.588 1.71326 184.572 1.56774C184.564 1.44186 184.538 1.06422 184.538 1.06422L184.034 1.09891L182.67 1.19293L180.009 1.37624C180.009 1.37624 180.035 1.75388 180.044 1.87976L180.057 2.24675L180.055 2.59184L180.023 2.91887L179.966 3.22173L179.897 3.50535L179.806 3.77032L179.705 4.01872L179.58 4.25153L179.445 4.46205L179.301 4.65885L179.144 4.84213L178.98 5.01151L178.812 5.16392L178.638 5.30241L178.46 5.42966L178.283 5.53669L177.917 5.7315C177.795 5.78595 177.677 5.83142 177.563 5.88527C177.445 5.92216 177.332 5.96152 177.228 5.99456C177.121 6.02494 177.022 6.05186 176.929 6.07553C176.745 6.11123 176.583 6.14249 176.478 6.16123C176.37 6.17444 176.304 6.18183 176.304 6.18183C176.304 6.18183 172.282 6.45897 172.005 2.43649C171.996 2.31061 171.97 1.93297 171.97 1.93297L167.444 2.24479C167.444 2.24479 167.47 2.62244 167.478 2.74832C167.756 6.77079 163.733 7.04792 163.733 7.04792C163.733 7.04792 159.716 7.32466 159.439 3.30219C159.431 3.1763 159.405 2.79866 159.405 2.79866L154.873 3.11088C154.873 3.11088 154.899 3.48852 154.908 3.6144C155.185 7.63687 151.168 7.91361 151.168 7.91361C151.168 7.91361 147.145 8.19074 146.868 4.16827C146.86 4.04239 146.834 3.66475 146.834 3.66475L142.308 3.97657C142.308 3.97657 142.334 4.35421 142.342 4.48009C142.619 8.50257 138.597 8.7797 138.597 8.7797C138.597 8.7797 134.575 9.05683 134.297 5.03436C134.289 4.90848 134.263 4.53083 134.263 4.53083L129.737 4.84266C129.737 4.84266 129.763 5.2203 129.771 5.34618C130.049 9.36865 126.026 9.64579 126.026 9.64579C126.026 9.64579 122.004 9.92292 121.726 5.90044C121.718 5.77456 121.692 5.39692 121.692 5.39692L117.166 5.70874C117.166 5.70874 117.192 6.08639 117.2 6.21227C117.478 10.2347 113.455 10.5119 113.455 10.5119C113.455 10.5119 109.436 10.7888 109.158 6.76633C109.15 6.64045 109.124 6.26281 109.124 6.26281L104.595 6.57483C104.595 6.57483 104.621 6.95247 104.63 7.07835C104.907 11.1008 100.887 11.3778 100.887 11.3778C100.887 11.3778 96.8675 11.6547 96.5903 7.63222C96.5816 7.50634 96.5556 7.1287 96.5556 7.1287L92.0296 7.44052C92.0296 7.44052 92.0557 7.81816 92.0643 7.94405C92.3415 11.9665 88.319 12.2436 88.319 12.2436C88.319 12.2436 84.2994 12.5206 84.0222 8.49811C84.0136 8.37223 83.9876 7.99459 83.9876 7.99459L79.4587 8.30661C79.4587 8.30661 79.4847 8.68425 79.4934 8.81013C79.7705 12.8326 75.7509 13.1095 75.7509 13.1095C75.7509 13.1095 71.7284 13.3867 71.4513 9.3642C71.4426 9.23832 71.4166 8.86067 71.4166 8.86067L66.8906 9.1725C66.8906 9.1725 66.9166 9.55014 66.9253 9.67602C67.2024 13.6985 63.18 13.9756 63.18 13.9756C63.18 13.9756 59.1604 14.2526 58.8832 10.2301C58.8746 10.1042 58.8485 9.72656 58.8485 9.72656L54.3197 10.0386C54.3197 10.0386 54.3457 10.4162 54.3544 10.5421C54.6315 14.5646 50.6119 14.8415 50.6119 14.8415C50.6119 14.8415 46.5894 15.1186 46.3123 11.0962C46.3036 10.9703 46.2776 10.5926 46.2776 10.5926L41.7516 10.9045C41.7516 10.9045 41.7776 11.2821 41.7863 11.408C42.0634 15.4305 38.041 15.7076 38.041 15.7076C38.041 15.7076 34.0185 15.9847 33.7413 11.9623C33.7327 11.8364 33.7067 11.4587 33.7067 11.4587L29.1807 11.7706C29.1807 11.7706 29.2067 12.1482 29.2154 12.2741C29.4925 16.2966 25.4729 16.5735 25.4729 16.5735C25.4729 16.5735 21.4504 16.8506 21.1733 12.8281C21.1646 12.7023 21.1386 12.3246 21.1386 12.3246L16.6126 12.6364C16.6126 12.6364 16.6386 13.0141 16.6473 13.14C16.9244 17.1624 12.9019 17.4396 12.9019 17.4396C12.9019 17.4396 12.8388 17.4411 12.7297 17.4428C12.6173 17.4391 12.4586 17.4299 12.2682 17.42C12.1753 17.4063 12.0709 17.3933 11.9608 17.3808C11.8532 17.3624 11.7364 17.3359 11.6173 17.3182C11.4968 17.2805 11.3741 17.2516 11.2451 17.2145L10.8587 17.0716L10.6405 16.9917L10.4466 16.8901L10.252 16.777L10.0649 16.6491L9.87959 16.5037L9.69897 16.3437L9.52881 16.1686L9.3691 15.9784L9.2164 15.7647L9.07683 15.5329L8.95323 15.2827L8.84256 15.0115L8.75054 14.7188L8.67677 14.3991L8.61612 14.0612L8.58231 13.6956C8.57364 13.5697 8.54762 13.1921 8.54762 13.1921L5.88695 13.3754L4.52229 13.4694L4.01876 13.5041C4.01876 13.5041 4.04478 13.8818 4.05345 14.0076C4.06084 14.1566 4.06537 14.3058 4.06931 14.4463C4.0618 14.5877 4.0539 14.7234 4.0456 14.8533L3.99358 15.2248L3.9173 15.5779L3.81024 15.9014L3.67813 16.1951L3.52727 16.4671L3.36014 16.7115L3.13815 16.9107L2.8925 17.1001L2.61685 17.2714L2.31368 17.4188L1.97746 17.5455L1.61373 17.6481C1.48311 17.6715 1.35288 17.7006 1.21082 17.7248C1.07123 17.743 0.92552 17.7559 0.776949 17.769C0.651068 17.7777 0.273423 17.8037 0.273423 17.8037L0.308311 18.3101L0.402527 19.6776L0.585837 22.3383C0.585837 22.3383 0.963481 22.3123 1.08936 22.3036L1.45595 22.2841L1.79897 22.2978L2.12314 22.3301L2.42866 22.3838L2.71228 22.4534L2.97726 22.5443L3.22585 22.6479L3.4556 22.7701L3.66898 22.9049L3.86578 23.0494L4.04601 23.2037L4.21538 23.3674L4.36799 23.538L4.50915 23.7093L4.63373 23.8905L4.74382 24.0697L4.93843 24.4329C4.99288 24.5556 5.03855 24.6761 5.08954 24.7904C5.1291 24.9055 5.16539 25.0151 5.20129 25.119C5.22901 25.2292 5.25593 25.328 5.28246 25.421C5.3153 25.6056 5.34637 25.7644 5.36836 25.875C5.37851 25.9807 5.38877 26.0461 5.38877 26.0461C5.38877 26.0461 5.6657 30.0657 1.64323 30.3428C1.51735 30.3515 1.13971 30.3775 1.13971 30.3775L1.45173 34.9064C1.45173 34.9064 1.82937 34.8804 1.95525 34.8717C5.97772 34.5945 6.25466 38.6142 6.25466 38.6142C6.25466 38.6142 6.53179 42.6366 2.50932 42.9138C2.38344 42.9224 2.00579 42.9485 2.00579 42.9485L2.31762 47.4745C2.31762 47.4745 2.69526 47.4484 2.82114 47.4398C6.84361 47.1626 7.12074 51.1851 7.12074 51.1851C7.12074 51.1851 7.39788 55.2076 3.3754 55.4847C3.24952 55.4934 2.87188 55.5194 2.87188 55.5194L3.1837 60.0454C3.1837 60.0454 3.56135 60.0194 3.68723 60.0107C7.7097 59.7336 7.98663 63.7532 7.98663 63.7532C7.98663 63.7532 8.26357 67.7728 4.2411 68.0499C4.11522 68.0586 3.73757 68.0846 3.73757 68.0846L4.04959 72.6135C4.04959 72.6135 4.42724 72.5874 4.55312 72.5788C8.57559 72.3016 8.85252 76.3213 8.85252 76.3213C8.85252 76.3213 9.12965 80.3437 5.10718 80.6209C4.9813 80.6295 4.60366 80.6556 4.60366 80.6556L4.91548 85.1815C4.91548 85.1815 5.29312 85.1555 5.41901 85.1469C9.44148 84.8697 9.71861 88.8922 9.71861 88.8922C9.71861 88.8922 9.99574 92.9147 5.97327 93.1918C5.84739 93.2005 5.46974 93.2265 5.46974 93.2265L5.78157 97.7525C5.78157 97.7525 6.15921 97.7265 6.28509 97.7178C10.3076 97.4407 10.5847 101.463 10.5847 101.463C10.5847 101.463 10.8616 105.483 6.83916 105.76C6.71328 105.769 6.33563 105.795 6.33563 105.795L6.64765 110.323C6.64765 110.323 7.0253 110.297 7.15118 110.289C11.1736 110.012 11.4508 114.034 11.4508 114.034C11.4508 114.034 11.7275 118.051 7.70505 118.328C7.57917 118.337 7.20152 118.363 7.20152 118.363L7.51374 122.894C7.51374 122.894 7.89138 122.868 8.01726 122.86C12.0397 122.583 12.3165 126.599 12.3165 126.599C12.3165 126.599 12.5936 130.622 8.57113 130.899C8.44525 130.908 8.06761 130.934 8.06761 130.934L8.37943 135.46C8.37943 135.46 8.75708 135.434 8.88296 135.425C12.9054 135.148 13.1826 139.17 13.1826 139.17C13.1826 139.17 13.4597 143.193 9.43722 143.47C9.31134 143.479 8.93369 143.505 8.93369 143.505L9.24552 148.031C9.24552 148.031 9.62316 148.005 9.74904 147.996C13.7715 147.719 14.0486 151.741 14.0486 151.741C14.0486 151.741 14.3258 155.764 10.3033 156.041C10.1774 156.049 9.79978 156.075 9.79978 156.075L10.1116 160.601C10.1116 160.601 10.4892 160.575 10.6151 160.567C14.6376 160.29 14.9147 164.312 14.9147 164.312C14.9147 164.312 15.1915 168.329 11.169 168.606C11.0431 168.615 10.6655 168.641 10.6655 168.641L10.9775 173.17C10.9775 173.17 11.3551 173.144 11.481 173.135C15.5035 172.858 15.7808 176.883 15.7808 176.883C15.7808 176.883 16.0574 180.897 12.0349 181.174C11.909 181.183 11.5314 181.209 11.5314 181.209L11.8436 185.74C11.8436 185.74 12.2212 185.714 12.3471 185.706C16.3696 185.429 16.6463 189.445 16.6463 189.445C16.6463 189.445 16.9234 193.468 12.901 193.745C12.7751 193.754 12.3974 193.78 12.3974 193.78L12.7093 198.306C12.7093 198.306 13.0869 198.28 13.2128 198.271C17.2353 197.994 17.5124 202.016 17.5124 202.016C17.5124 202.016 17.7895 206.039 13.7671 206.316C13.6412 206.325 13.2635 206.351 13.2635 206.351L13.5754 210.877C13.5754 210.877 13.953 210.851 14.0789 210.842C18.1014 210.565 18.3785 214.587 18.3785 214.587C18.3785 214.587 18.6556 218.61 14.6331 218.887C14.5073 218.896 14.1296 218.922 14.1296 218.922L14.4414 223.448C14.4414 223.448 14.8191 223.422 14.945 223.413C18.9674 223.136 19.2446 227.158 19.2446 227.158C19.2446 227.158 19.5213 231.175 15.4988 231.452C15.373 231.461 14.9953 231.487 14.9953 231.487L15.3075 236.019C15.3075 236.019 15.6852 235.992 15.8111 235.984C19.8335 235.707 20.1103 239.723 20.1103 239.723C20.1103 239.723 20.1091 239.79 20.1137 239.899C20.1073 240.014 20.0979 240.17 20.0911 240.363C20.0743 240.453 20.0612 240.555 20.0519 240.67C20.0308 240.781 20.0066 240.889 19.9863 241.011C19.9516 241.134 19.9225 241.254 19.8854 241.383L19.7426 241.772L19.658 241.962L19.5596 242.162L19.4431 242.348L19.3151 242.535L19.1702 242.726L19.0124 242.898L18.8373 243.068L18.6444 243.231L18.4338 243.386L18.2016 243.52L17.9516 243.646L17.6802 243.754L17.3851 243.852L17.0684 243.929L16.7305 243.989L16.3647 244.02C16.2388 244.029 15.8612 244.055 15.8612 244.055L16.0445 246.716L16.1385 248.08L16.1736 248.589C16.1736 248.589 16.5513 248.563 16.6771 248.555C16.8288 248.544 16.9751 248.54 17.1128 248.536C17.2572 248.546 17.39 248.555 17.5224 248.557L17.8968 248.609L18.2476 248.694L18.5681 248.798L18.8644 248.927L19.1336 249.078L19.3808 249.245L19.58 249.467L19.7666 249.713L19.9381 249.992L20.0881 250.292L20.2117 250.625L20.315 250.998C20.3408 251.122 20.3674 251.258 20.3941 251.395C20.4092 251.531 20.4254 251.683 20.4383 251.828C20.447 251.954 20.473 252.332 20.473 252.332L20.9794 252.297L22.3441 252.203L25.0047 252.02C25.0047 252.02 24.9787 251.642 24.9701 251.516L24.9536 251.152L24.9673 250.809L24.9994 250.482L25.0504 250.18L25.1227 249.893L25.2108 249.628L25.3173 249.38L25.4394 249.15L25.5713 248.937L25.7161 248.743L25.8728 248.557L26.0369 248.393L26.2044 248.238L26.3788 248.099L26.5569 247.972L26.7392 247.864L27.1024 247.67C27.2249 247.613 27.3427 247.57 27.4571 247.519C27.5718 247.474 27.6845 247.44 27.7885 247.407C27.8957 247.377 27.9973 247.349 28.0877 247.326C28.2747 247.287 28.4309 247.259 28.5415 247.237C28.6469 247.224 28.7123 247.214 28.7123 247.214C28.7123 247.214 32.7348 246.937 33.0119 250.959C33.0206 251.085 33.0466 251.463 33.0466 251.463L37.5726 251.151C37.5726 251.151 37.5466 250.773 37.5379 250.647C37.2608 246.625 41.2833 246.348 41.2833 246.348C41.2833 246.348 45.3029 246.071 45.58 250.093C45.5887 250.219 45.6147 250.597 45.6147 250.597L50.1407 250.285C50.1407 250.285 50.1147 249.907 50.106 249.782C49.8289 245.759 53.8513 245.482 53.8513 245.482C53.8513 245.482 57.8738 245.205 58.1509 249.227C58.1596 249.353 58.1856 249.731 58.1856 249.731L62.7116 249.419C62.7116 249.419 62.6856 249.041 62.6769 248.915C62.3998 244.893 66.4223 244.616 66.4223 244.616C66.4223 244.616 70.4419 244.339 70.719 248.361C70.7277 248.487 70.7537 248.865 70.7537 248.865L75.2826 248.553C75.2826 248.553 75.2566 248.175 75.2479 248.049C74.9708 244.027 78.9904 243.75 78.9904 243.75C78.9904 243.75 83.0128 243.473 83.29 247.495C83.2986 247.621 83.3247 247.999 83.3247 247.999L87.8507 247.687C87.8507 247.687 87.8246 247.309 87.816 247.184C87.5388 243.161 91.5613 242.884 91.5613 242.884C91.5613 242.884 95.5809 242.607 95.858 246.629C95.8667 246.755 95.8927 247.133 95.8927 247.133L100.422 246.821C100.422 246.821 100.396 246.443 100.387 246.317C100.11 242.295 104.129 242.018 104.129 242.018C104.129 242.018 108.152 241.741 108.429 245.763C108.438 245.889 108.464 246.267 108.464 246.267L112.99 245.955C112.99 245.955 112.964 245.577 112.955 245.452C112.678 241.429 116.697 241.152 116.697 241.152C116.697 241.152 120.717 240.875 120.994 244.898C121.003 245.024 121.029 245.401 121.029 245.401L125.558 245.089C125.558 245.089 125.532 244.712 125.523 244.586C125.246 240.563 129.266 240.286 129.266 240.286C129.266 240.286 133.288 240.009 133.565 244.032C133.574 244.157 133.6 244.535 133.6 244.535L138.126 244.223C138.126 244.223 138.1 243.846 138.091 243.72C137.814 239.697 141.836 239.42 141.836 239.42C141.836 239.42 145.859 239.143 146.136 243.165C146.145 243.291 146.171 243.669 146.171 243.669L150.697 243.357C150.697 243.357 150.671 242.98 150.662 242.854C150.385 238.831 154.407 238.554 154.407 238.554C154.407 238.554 158.43 238.277 158.707 242.299C158.716 242.425 158.742 242.803 158.742 242.803L163.268 242.491C163.268 242.491 163.242 242.113 163.233 241.988C162.956 237.965 166.978 237.688 166.978 237.688C166.978 237.688 170.995 237.411 171.272 241.434C171.281 241.56 171.307 241.937 171.307 241.937L175.839 241.625C175.839 241.625 175.813 241.247 175.804 241.121C175.527 237.099 179.544 236.822 179.544 236.822C179.544 236.822 183.566 236.545 183.843 240.568C183.852 240.693 183.878 241.071 183.878 241.071L188.404 240.759C188.404 240.759 188.378 240.382 188.369 240.256C188.092 236.233 192.115 235.956 192.115 235.956C192.115 235.956 192.178 235.958 192.29 235.956C192.397 235.963 192.561 235.969 192.749 235.982C192.844 235.992 192.946 236.005 193.056 236.021C193.164 236.039 193.28 236.06 193.403 236.086C193.523 236.121 193.645 236.147 193.775 236.187L194.164 236.33L194.353 236.411L194.547 236.513L194.739 236.626L194.926 236.757L195.111 236.897L195.292 237.06L195.462 237.232L195.625 237.425L195.78 237.635L195.914 237.868L196.041 238.118L196.149 238.392L196.246 238.684L196.323 239.004L196.378 239.342L196.414 239.704C196.423 239.83 196.449 240.208 196.449 240.208L199.11 240.025L200.474 239.931L200.978 239.896C200.978 239.896 200.952 239.518 200.943 239.392C200.939 239.243 200.934 239.094 200.93 238.956C200.941 238.818 200.943 238.68 200.951 238.552L201.003 238.175L201.082 237.822L201.192 237.504L201.321 237.205L201.472 236.936L201.634 236.689L201.861 236.489L202.107 236.303L202.383 236.134L202.686 235.987L203.019 235.855L203.383 235.752C203.514 235.731 203.647 235.705 203.789 235.675C203.926 235.66 204.077 235.644 204.223 235.634C204.349 235.625 204.726 235.599 204.726 235.599L204.691 235.09L204.597 233.725L204.414 231.064C204.414 231.064 204.036 231.09 203.91 231.099L203.547 231.118L203.204 231.105L202.877 231.073L202.574 231.016L202.287 230.946L202.019 230.856L201.774 230.755L201.544 230.63L201.33 230.495L201.137 230.35L200.951 230.202L200.781 230.033L200.632 229.865L200.494 229.696L200.366 229.512L200.253 229.336L200.058 228.97C200.007 228.847 199.959 228.733 199.907 228.615C199.868 228.497 199.832 228.393 199.801 228.286C199.768 228.174 199.744 228.075 199.715 227.988C199.684 227.797 199.657 227.644 199.629 227.531C199.616 227.425 199.611 227.357 199.611 227.357C199.611 227.357 199.334 223.34 203.357 223.063C203.483 223.054 203.86 223.028 203.86 223.028L203.549 218.516C203.549 218.516 203.172 218.542 203.046 218.551C199.023 218.828 198.747 214.811 198.747 214.811C198.747 214.811 198.469 210.789 202.492 210.512C202.618 210.503 202.995 210.477 202.995 210.477L202.684 205.951C202.684 205.951 202.306 205.977 202.18 205.986C198.158 206.263 197.88 202.24 197.88 202.24C197.88 202.24 197.603 198.218 201.626 197.941C201.752 197.932 202.129 197.906 202.129 197.906L201.818 193.38C201.818 193.38 201.44 193.406 201.314 193.415C197.292 193.692 197.014 189.67 197.014 189.67C197.014 189.67 196.737 185.647 200.76 185.37C200.886 185.361 201.263 185.335 201.263 185.335L200.951 180.809C200.951 180.809 200.574 180.835 200.448 180.844C196.425 181.121 196.148 177.099 196.148 177.099C196.148 177.099 195.872 173.082 199.894 172.805C200.02 172.796 200.398 172.77 200.398 172.77L200.085 168.238C200.085 168.238 199.708 168.264 199.582 168.273C195.559 168.55 195.283 164.536 195.283 164.536C195.283 164.536 195.006 160.511 199.028 160.234C199.154 160.225 199.532 160.199 199.532 160.199L199.219 155.67C199.219 155.67 198.842 155.696 198.716 155.705C194.694 155.982 194.417 151.965 194.417 151.965C194.417 151.965 194.14 147.943 198.162 147.666C198.288 147.657 198.666 147.631 198.666 147.631L198.354 143.105C198.354 143.105 197.976 143.131 197.85 143.14C193.828 143.417 193.551 139.394 193.551 139.394C193.551 139.394 193.274 135.372 197.296 135.095C197.422 135.086 197.8 135.06 197.8 135.06L197.488 130.534C197.488 130.534 197.11 130.56 196.984 130.569C192.962 130.846 192.685 126.823 192.685 126.823C192.685 126.823 192.407 122.801 196.43 122.524C196.556 122.515 196.933 122.489 196.933 122.489L196.622 117.963C196.622 117.963 196.244 117.989 196.118 117.998C192.096 118.275 191.818 114.252 191.818 114.252C191.818 114.252 191.542 110.236 195.564 109.959C195.69 109.95 196.068 109.924 196.068 109.924L195.756 105.392C195.756 105.392 195.378 105.418 195.252 105.427C191.23 105.704 190.953 101.687 190.953 101.687C190.953 101.687 190.676 97.6648 194.698 97.3876C194.824 97.379 195.202 97.3529 195.202 97.3529L194.89 92.8241C194.89 92.8241 194.512 92.8501 194.386 92.8588C190.364 93.1359 190.087 89.1163 190.087 89.1163C190.087 89.1163 189.81 85.0938 193.832 84.8167C193.958 84.808 194.336 84.782 194.336 84.782L194.024 80.256C194.024 80.256 193.646 80.282 193.52 80.2907C189.498 80.5678 189.221 76.5454 189.221 76.5454C189.221 76.5454 188.944 72.5229 192.966 72.2458C193.092 72.2371 193.469 72.2111 193.469 72.2111L193.158 67.6851C193.158 67.6851 192.78 67.7111 192.654 67.7198C188.632 67.9969 188.355 63.9744 188.355 63.9744C188.355 63.9744 188.078 59.9548 192.1 59.6777C192.226 59.669 192.604 59.643 192.604 59.643L192.292 55.1141C192.292 55.1141 191.914 55.1402 191.788 55.1488C187.766 55.426 187.489 51.4063 187.489 51.4063C187.489 51.4063 187.212 47.3867 191.234 47.1096C191.36 47.1009 191.738 47.0749 191.738 47.0749L191.426 42.5489C191.426 42.5489 191.048 42.5749 190.922 42.5836C186.9 42.8607 186.623 38.8383 186.623 38.8383C186.623 38.8383 186.346 34.8158 190.368 34.5387C190.494 34.53 190.872 34.504 190.872 34.504L190.56 29.978C190.56 29.978 190.182 30.004 190.056 30.0127C186.034 30.2898 185.757 26.2673 185.757 26.2673C185.757 26.2673 185.48 22.2477 189.502 21.9706C189.628 21.9619 190.006 21.9359 190.006 21.9359L189.692 17.3842C189.692 17.3842 189.315 17.4102 189.189 17.4188C185.166 17.696 184.889 13.6764 184.889 13.6764C184.889 13.6764 184.885 13.6134 184.883 13.5043C184.895 13.3914 184.902 13.23 184.906 13.0428C184.925 12.9466 184.935 12.8453 184.951 12.7322C184.969 12.6245 184.99 12.511 185.011 12.3917C185.045 12.2715 185.077 12.1457 185.111 12.0168L185.254 11.6304L185.342 11.4376L185.443 11.2409L185.556 11.052L185.681 10.8623L185.827 10.6769L185.99 10.4989L186.162 10.329L186.355 10.1662L186.566 10.0137L186.795 9.87719L187.048 9.75054L187.322 9.64253L187.614 9.54765L187.934 9.47102L188.272 9.41037L188.635 9.37962C188.761 9.37094 189.138 9.34493 189.138 9.34493L188.556 3.14325L188.861 5.31673L188.826 4.81035C188.84 4.80936 188.463 4.83538 188.337 4.84405ZM186.392 223.412L32.6802 234.002L18.6257 30.0064L172.341 19.4161L186.392 223.412Z" fill="#E2DAC5"/>
<g style="mix-blend-mode:overlay">
<path d="M56.2041 154.861C59.2874 169.796 69.7349 182.148 83.9516 187.667C69.0162 190.751 56.6638 201.198 51.1449 215.415C48.0616 200.479 37.6141 188.127 23.3974 182.608C38.3328 179.525 50.6852 169.077 56.2041 154.861Z" fill="#FFE91F"/>
</g>
</svg>
